<svg width="1144" height="715" viewBox="0 0 1144 715" fill="none" xmlns="http://www.w3.org/2000/svg">
<g clip-path="url(#clip0_618_606)">
<path opacity="0.1" d="M1144 494.2C1144.08 465.334 1137.22 436.872 1123.99 411.215C1110.76 385.558 1091.56 363.458 1068 346.78C1068.65 340.544 1068.99 334.28 1069 328.01C1069 228.87 989.76 148.5 892 148.5C861.897 148.468 832.3 156.233 806.09 171.04C736.9 125.52 646.57 97.97 547.75 97.97C386.96 97.97 248.65 170.92 187.29 275.52C183.88 275.32 180.45 275.21 176.99 275.21C79.2501 275.21 -0.00989925 355.58 -0.00989925 454.72C-0.0793123 489.746 10.0419 524.036 29.1201 553.41V553.41C29.1201 642.61 113.31 714.91 217.12 714.91H970.24C1051.78 714.91 1117.88 658.14 1117.88 588.1C1135.03 559.787 1144.07 527.303 1144 494.2Z" fill="#6C63FF"/>
<path d="M828.58 164.13C821.04 167.31 813.48 170.5 806.46 174.7C803.27 176.6 800.21 178.7 796.93 180.43C793.4 182.31 789.65 183.73 785.93 185.25C775.664 189.443 765.695 194.328 756.09 199.87C756.92 189.12 755.35 177.44 748.92 169.06C747.975 167.818 746.925 166.661 745.78 165.6C741.23 161.38 734.78 160.29 730.31 156.6C733.03 151.82 739.07 147.48 743.18 143.83C747.62 139.903 752.227 136.18 757 132.66C766.541 125.615 776.699 119.446 787.35 114.23C794.11 110.92 801.17 107.96 808.63 106.95C809.57 106.738 810.552 106.826 811.44 107.2C812.6 107.84 813.02 109.28 813.3 110.57C814.69 117.02 815.4 123.64 816.56 130.14C817.129 133.481 817.9 136.783 818.87 140.03C820.117 143.87 821.555 147.645 823.18 151.34C824.987 155.6 826.787 159.863 828.58 164.13Z" fill="#FBBEBE"/>
<path d="M614.57 346.41C614.567 359.685 610.372 372.619 602.582 383.368C594.792 394.117 583.806 402.13 571.192 406.265C558.578 410.399 544.98 410.444 532.339 406.391C519.698 402.339 508.66 394.398 500.8 383.7C492.847 372.894 488.561 359.827 488.57 346.41C488.57 329.701 495.207 313.677 507.022 301.862C518.837 290.047 534.861 283.41 551.57 283.41C568.278 283.41 584.303 290.047 596.118 301.862C607.932 313.677 614.57 329.701 614.57 346.41Z" fill="#BE6F72"/>
<path d="M529 401.93C532.37 407.74 535.77 413.6 537.93 419.93C540.09 426.26 540.93 433.27 539.15 439.74C560.61 428.44 586.15 429.35 609.77 423.63C610.402 423.557 610.984 423.251 611.4 422.77C611.544 422.442 611.618 422.088 611.618 421.73C611.618 421.372 611.544 421.018 611.4 420.69C606.455 402.392 604.553 383.405 605.77 364.49L593.44 371.78C588.043 375.114 582.449 378.119 576.69 380.78C568.54 384.35 559.89 386.51 551.38 389.01C544.64 391.01 531.26 393.6 527.02 399.49C527.785 400.212 528.451 401.033 529 401.93V401.93Z" fill="#BE6F72"/>
<path d="M494.29 317.21C490.19 318.86 485.37 320.76 481.6 318.45C478.83 316.74 477.69 313.19 477.86 309.94C478.03 306.69 479.27 303.61 480.25 300.51C482.25 294.14 483.33 287.51 485.56 281.17C487.79 274.83 491.43 268.72 497.21 265.37C507.85 259.21 521.62 264.3 533.43 260.89C538.43 259.46 542.78 256.58 547.43 254.32C552.08 252.06 557.31 250.32 562.33 251.53C568.21 252.9 572.55 257.85 578.03 260.37C584.03 263.13 591.21 262.94 596.67 266.63C600.54 269.25 602.98 273.48 605.15 277.63C612.093 290.967 617.575 305.015 621.5 319.53C623.07 324.727 623.967 330.104 624.17 335.53C624.22 342.47 622.34 349.27 620.48 355.97L617.48 366.57C616.37 370.57 615.23 374.57 613.13 378.19C611.03 381.81 607.79 384.86 603.78 385.91C598.78 387.2 592.96 384.7 590.78 380.02C589.44 377.12 589.5 373.8 589.43 370.61C589.32 364.363 588.65 358.138 587.43 352.01C586.81 348.94 585.98 345.75 583.89 343.43C581.19 340.43 576.89 339.43 572.89 339.36C568.21 339.3 563.08 340.57 560.35 344.36C558.16 347.42 557.78 351.72 554.87 354.11C553.577 355.102 552.039 355.728 550.42 355.92C547.119 356.331 543.775 355.624 540.924 353.911C538.072 352.198 535.877 349.578 534.69 346.47C533.77 343.83 533.32 340.55 530.82 339.31C529.52 338.66 527.97 338.78 526.58 338.36C522.32 337.07 521.2 331.67 520.81 327.24C520.36 322.05 522.09 311.8 515.64 311.45C508.69 311.07 500.68 315.08 494.29 317.21Z" fill="#3F3D56"/>
<path d="M509.4 385.5C507.18 386.57 504.75 387.82 503.88 390.12C503.54 391.02 503.48 392.01 503.17 392.93C501.76 397 496.26 397.8 493.42 401.04C492.139 402.678 491.277 404.603 490.91 406.65C489.013 414.72 489.627 423.178 492.67 430.89C493.552 433.334 494.912 435.577 496.67 437.49C501.75 442.67 510.51 442.57 516.84 439.04C523.17 435.51 527.54 429.32 531.25 423.04C533.217 419.879 534.862 416.529 536.16 413.04C537.301 409.492 538.114 405.846 538.59 402.15C540.81 387.74 543.71 371.76 542.71 357.15C539.71 356.96 533.98 356.75 531.33 358.63C528.01 360.99 528.93 365.75 527.73 369.2C524.89 377.5 516.65 381.88 509.4 385.5Z" fill="#3F3D56"/>
<path d="M512 387.41C508.25 387.64 501.53 383.49 497.77 383.7C495.211 379.234 492.95 374.604 491 369.84C493 366.97 496.22 366.27 501.09 369.84C505 372.59 510.4 382.1 512 387.41Z" fill="#3F3D56"/>
<path d="M568.53 229.41C564.46 231.56 561.94 231.66 559.93 231.23C557.92 230.8 553.93 232.8 553.93 232.8C518.68 244.86 517.29 250.55 517.29 250.55L558.1 236.14C565.95 232.7 566.1 233.91 566.1 233.91C572.1 239.55 579.74 235.73 579.74 235.73C579.74 235.73 590.31 230.73 587.2 225.92C584.09 221.11 572.61 227.3 568.53 229.41ZM585.53 228.51C585.53 228.51 582.53 236.51 571.74 235.21C571.74 235.21 566.44 234.43 568.68 230.48C568.68 230.48 579.68 225.86 582.59 226.19C585.5 226.52 585.5 228.55 585.5 228.55L585.53 228.51Z" fill="#E8E8F0"/>
<path opacity="0.1" d="M568.53 229.41C564.46 231.56 561.94 231.66 559.93 231.23C557.92 230.8 553.93 232.8 553.93 232.8C518.68 244.86 517.29 250.55 517.29 250.55L558.1 236.14C565.95 232.7 566.1 233.91 566.1 233.91C572.1 239.55 579.74 235.73 579.74 235.73C579.74 235.73 590.31 230.73 587.2 225.92C584.09 221.11 572.61 227.3 568.53 229.41ZM585.53 228.51C585.53 228.51 582.53 236.51 571.74 235.21C571.74 235.21 566.44 234.43 568.68 230.48C568.68 230.48 579.68 225.86 582.59 226.19C585.5 226.52 585.5 228.55 585.5 228.55L585.53 228.51Z" fill="black"/>
<path d="M570.77 207.11C564.67 207.31 563.4 211.87 563.4 211.87C562.179 213.327 561.463 215.141 561.361 217.04C561.258 218.939 561.774 220.819 562.83 222.4L552 233.17C549.948 233.962 548.184 235.356 546.94 237.17C546.94 237.17 523.16 258.17 523.51 260.08C523.51 260.08 527.39 262.08 552 239.65L558.46 233.93C558.46 233.93 559.89 223.24 569.98 221.21C569.98 221.21 570.98 221.65 571.51 219.27C572.076 218.129 572.83 217.091 573.74 216.2C575.08 214.96 576.87 206.9 570.77 207.11ZM572.48 214.34C572.48 214.34 569.21 222.78 564.55 220.34C559.89 217.9 564.42 212.27 564.42 212.27C572.5 204.41 572.48 214.34 572.48 214.34Z" fill="#E8E8F0"/>
<path opacity="0.1" d="M552.21 237.37C552.922 237.37 553.5 236.792 553.5 236.08C553.5 235.368 552.922 234.79 552.21 234.79C551.498 234.79 550.92 235.368 550.92 236.08C550.92 236.792 551.498 237.37 552.21 237.37Z" fill="black"/>
<path d="M665.06 195.29C661.296 193.307 657.388 191.609 653.37 190.21C648.029 188.695 642.541 187.757 637 187.41C619.494 185.743 601.934 184.777 584.32 184.51C581.21 184.51 578.03 184.44 575.08 185.51C572.445 186.521 570.058 188.086 568.08 190.1C564.654 193.376 561.932 197.316 560.08 201.68C559.486 202.773 559.308 204.045 559.58 205.26C559.98 206.42 561.58 207.19 562.49 206.37C560.162 208.246 558.452 210.779 557.582 213.639C556.712 216.499 556.722 219.555 557.61 222.41C556.222 223.136 555.045 224.208 554.192 225.521C553.339 226.835 552.839 228.347 552.74 229.91C560.011 231.256 567.494 230.893 574.6 228.85C572.48 228.31 570.29 230.3 570.16 232.48C570.174 233.575 570.491 234.645 571.075 235.572C571.659 236.498 572.488 237.245 573.47 237.73C575.454 238.669 577.639 239.101 579.83 238.99C588.3 238.99 596.54 236.12 604.99 235.75C611.45 235.46 618.11 236.63 624.28 234.75C631.44 232.53 637.83 226.24 645.21 227.55C651.1 228.6 654.94 234.07 658.78 238.65C664.92 245.96 672.51 251.88 680.04 257.75C685.84 262.27 691.9 266.91 699.09 268.44C701.242 269.026 703.524 268.918 705.61 268.13C707.354 267.197 708.817 265.816 709.85 264.13C717.6 253.13 717.61 239.28 717.16 226.39C716.93 219.8 715.49 218.91 709.39 216.18C702.31 213 695.257 209.743 688.23 206.41C680.47 202.783 672.747 199.077 665.06 195.29Z" fill="#FBBEBE"/>
<path d="M746.11 219.97C744.918 220.682 743.658 221.275 742.35 221.74C740.16 222.26 737.93 221.33 735.8 220.61C726.8 217.61 716.8 218.32 708.1 214.61C710.953 230.986 707.218 247.826 697.71 261.46C695.91 264.02 693.54 266.64 690.42 266.84C691.81 271.11 696.09 273.69 700.15 275.61C706.634 278.679 713.416 281.071 720.39 282.75C722.39 283.22 724.83 283.45 725.99 281.75C726.69 280.75 726.99 279.04 728.22 279.1C730.1 281.1 729.48 285.2 732.08 286.1C732.89 286.307 733.74 286.307 734.55 286.1L740.35 285.1C742.09 284.949 743.766 284.372 745.23 283.42C746.147 282.624 746.904 281.66 747.46 280.58C753.96 269.51 756.46 256.7 757.46 244.05C757.95 237.77 758.56 231.11 758.13 224.81C757.73 219.41 750.81 217.78 746.11 219.97Z" fill="#E8E8F0"/>
<path opacity="0.1" d="M746.11 219.97C744.918 220.682 743.658 221.275 742.35 221.74C740.16 222.26 737.93 221.33 735.8 220.61C726.8 217.61 716.8 218.32 708.1 214.61C710.953 230.986 707.218 247.826 697.71 261.46C695.91 264.02 693.54 266.64 690.42 266.84C691.81 271.11 696.09 273.69 700.15 275.61C706.634 278.679 713.416 281.071 720.39 282.75C722.39 283.22 724.83 283.45 725.99 281.75C726.69 280.75 726.99 279.04 728.22 279.1C730.1 281.1 729.48 285.2 732.08 286.1C732.89 286.307 733.74 286.307 734.55 286.1L740.35 285.1C742.09 284.949 743.766 284.372 745.23 283.42C746.147 282.624 746.904 281.66 747.46 280.58C753.96 269.51 756.46 256.7 757.46 244.05C757.95 237.77 758.56 231.11 758.13 224.81C757.73 219.41 750.81 217.78 746.11 219.97Z" fill="#F3A712"/>
<path d="M410.88 544.34C408.03 540.68 405.1 536.8 400.88 534.87C398.449 533.889 395.889 533.263 393.28 533.01C379.21 531.01 365.11 528.93 350.91 528.54C346.27 528.41 341.29 528.54 337.51 531.25C333.18 534.34 331.51 540.03 331.27 545.34C331.012 551.663 332.267 557.956 334.932 563.696C337.596 569.436 341.593 574.457 346.59 578.34C355.09 584.82 365.83 587.53 376.31 589.67C381.82 590.8 387.36 591.81 392.92 592.67C398.48 593.53 404.14 594.21 409.51 595.93C420.99 599.61 431.12 607.93 443.16 608.62C443.726 608.707 444.305 608.609 444.81 608.34C445.338 607.913 445.694 607.309 445.81 606.64C448.46 597.29 457.65 574.9 445.81 568.36C439.62 564.95 432.75 564.8 426.69 560.47C420.63 556.14 415.48 550.25 410.88 544.34Z" fill="#BE6F72"/>
<path d="M309.79 606.41C302 599.63 291.25 596.04 285.59 587.41C283.1 583.61 281.84 579.15 280.59 574.77L276.91 561.55C276.626 560.738 276.497 559.88 276.53 559.02C276.81 556.26 280.06 554.95 282.8 554.52C296.8 552.34 311.38 557.98 321.86 567.52C332.34 577.06 339.07 590.22 343.02 603.86C343.298 604.554 343.34 605.32 343.14 606.04C342.798 606.68 342.257 607.192 341.6 607.5C336.54 610.5 329.74 614.87 323.83 615.79C317.92 616.71 314 610.03 309.79 606.41Z" fill="#BE6F72"/>
<path d="M651.57 549.41L692.57 565.82C696.46 567.376 699.662 570.277 701.591 573.996C703.52 577.715 704.049 582.004 703.08 586.08L672.57 714.41H596.29L609.57 568.41C609.57 568.41 638.57 544.41 651.57 549.41Z" fill="#3F3D56"/>
<path d="M691.17 534.01C690.41 535.67 689.29 537.31 689.46 539.12C689.56 540.2 690.12 541.22 690.04 542.29C689.88 544.39 687.45 545.56 685.35 545.58C683.25 545.6 681.14 544.92 679.07 545.28C675.67 545.86 673.37 548.99 670.43 550.8C666.33 553.32 661.21 553.17 656.43 553.6C646.43 554.5 636.97 558.25 627.92 562.52C621.77 565.42 615.24 569.14 612.92 575.52C609.59 584.52 616.05 594 617.48 603.52C617.863 606.725 617.957 609.958 617.76 613.18C616.71 646.8 614.9 680.81 612.98 714.39L246.42 714.82L264.47 683.19C282.07 652.34 300.14 620.91 326.69 597.32C330.628 593.765 335.053 590.788 339.83 588.48L361.12 607.48C362.824 609.175 364.802 610.571 366.97 611.61C370.97 613.24 375.45 612.31 379.74 612.45C387.99 612.72 395.53 616.93 402.69 621.04C407.942 623.89 412.993 627.094 417.81 630.63C420.63 632.79 424.7 634.14 427.64 636.13L426.95 600.23C426.88 596.99 426.83 593.67 427.8 590.58C429.68 584.58 435.05 580.34 437.63 574.63C438.8 572.06 439.37 569.26 440.35 566.63C441.735 563.249 443.457 560.016 445.49 556.98L458.76 535.66C462.04 530.4 465.31 525.14 468.87 520.07C484.44 497.86 505.4 480.07 525.79 462.22C525.316 457.133 526.491 452.028 529.14 447.66C530.185 446.206 531.051 444.631 531.72 442.97C532.152 441.001 532.277 438.977 532.09 436.97C532.09 436.46 532.09 435.97 532.09 435.43C532.311 432.16 533.678 429.072 535.95 426.71C538.29 424.28 541.42 422.8 544.5 421.42C560.439 414.292 577.012 408.674 594 404.64C596.71 404 599.58 403.4 602.25 404.21C603.06 406.82 605.82 407.74 608.58 408.4L610.35 408.81C615.037 409.822 619.409 411.957 623.09 415.03C626.96 418.41 629.62 422.93 632.21 427.38C651.68 460.81 660.65 504.67 690.77 528.96C692.23 530.11 691.93 532.41 691.17 534.01Z" fill="#F3A712"/>
<path opacity="0.1" d="M814 123.41C803.46 146.58 782.69 169.41 755.57 169.41C753.356 169.411 751.143 169.301 748.94 169.08C747.995 167.838 746.945 166.681 745.8 165.62C741.25 161.4 734.8 160.31 730.33 156.62C733.05 151.84 739.09 147.5 743.2 143.85C747.64 139.923 752.247 136.2 757.02 132.68C766.561 125.635 776.719 119.466 787.37 114.25C794.13 110.94 801.19 107.98 808.65 106.97C809.59 106.758 810.572 106.846 811.46 107.22C812.62 107.86 813.04 109.3 813.32 110.59C814.71 116.99 812.84 116.91 814 123.41Z" fill="black"/>
<path d="M755.57 167.4C792.573 167.4 822.57 137.403 822.57 100.4C822.57 63.3968 792.573 33.3999 755.57 33.3999C718.567 33.3999 688.57 63.3968 688.57 100.4C688.57 137.403 718.567 167.4 755.57 167.4Z" fill="#FBBEBE"/>
<path d="M895.1 323.23C894.01 331.331 892.107 339.301 889.42 347.02C888.42 349.83 887.19 352.57 885.92 355.27C878.47 371.06 874.38 388.13 872.43 405.49C872.28 406.857 872.03 408.21 871.68 409.54C870.21 415.14 867.11 420.14 864.74 425.41C862.323 431.102 860.318 436.961 858.74 442.94C858.17 444.44 857.977 446.058 858.18 447.65C858.55 449.34 859.77 450.65 860.63 452.18C865.07 459.83 859.94 469.18 858.21 477.84C857.62 480.84 857.36 484.1 855.41 486.44C853.75 488.44 851.17 489.36 848.72 490.2C813.799 502.072 778.057 511.377 741.78 518.04C736.37 519.04 730.78 519.97 725.41 518.97C720.04 517.97 714.69 514.65 712.85 509.47C711.79 506.47 711.97 503.21 712.06 500.03C712.26 493.35 712.06 486.63 711.7 479.9C710.54 457.75 707.91 435.52 713.7 414.3C715.43 408.04 717.87 402 719.83 395.81C723.66 383.74 724.65 371.26 725.61 358.74C726.4 348.42 727.17 338.06 729.48 327.88C731.2 320.29 730.06 312.4 729.96 304.62C729.762 286.816 734.994 269.375 744.96 254.62C746.69 252.07 748.59 249.55 749.5 246.62C750.78 242.42 749.9 237.91 749.32 233.55C747.86 222.434 748.45 211.144 751.06 200.24C751.88 196.16 753.443 192.266 755.67 188.75C758.16 185.12 761.73 182.38 765.3 179.8C786.025 164.858 808.895 153.142 833.13 145.05C835.36 150.69 837.5 157.28 839.21 163.05C839.44 163.83 839.6 164.82 838.96 165.32C838.32 165.82 837.66 165.55 836.96 165.57C836.238 165.648 835.556 165.943 835.004 166.416C834.453 166.889 834.057 167.518 833.87 168.22C833.52 169.636 833.654 171.129 834.25 172.46C835.61 175.96 838.54 178.57 841.36 181.04L855.54 193.41C857.237 194.998 859.09 196.412 861.07 197.63C862.85 198.63 864.79 199.34 866.62 200.26C873.96 203.97 879.03 211.2 881.86 218.92C884.69 226.64 883.41 235.92 887.1 243.25C899.36 267.55 899.26 296.3 895.1 323.23Z" fill="#F3A712"/>
<path d="M885.78 577.49C890.088 594.857 889.981 613.025 885.47 630.34C884.66 633.43 883.71 636.63 884.35 639.76C884.72 641.54 885.59 643.21 885.79 645.02C885.877 646.671 885.698 648.326 885.26 649.92C880.82 670.92 882.41 692.74 884.2 714.17C883.44 714.17 883.2 714.52 882.4 714.52H863.13C862.79 708.89 855.79 704.67 852.37 700.18C849.061 695.779 846.773 690.697 845.672 685.302C844.57 679.908 844.682 674.336 846 668.99C849 656.99 857.84 647.4 862.37 635.93C867.37 623.31 866.94 609.02 872.25 596.54C875.3 589.33 881 583.7 885.78 577.49Z" fill="#3F3D56"/>
<path opacity="0.1" d="M885.78 577.49C890.088 594.857 889.981 613.025 885.47 630.34C884.66 633.43 883.71 636.63 884.35 639.76C884.72 641.54 885.59 643.21 885.79 645.02C885.877 646.671 885.698 648.326 885.26 649.92C880.82 670.92 882.41 692.74 884.2 714.17C883.44 714.17 883.2 714.52 882.4 714.52H863.13C862.79 708.89 855.79 704.67 852.37 700.18C849.061 695.779 846.773 690.697 845.672 685.302C844.57 679.908 844.682 674.336 846 668.99C849 656.99 857.84 647.4 862.37 635.93C867.37 623.31 866.94 609.02 872.25 596.54C875.3 589.33 881 583.7 885.78 577.49Z" fill="black"/>
<path d="M845.34 481.24C828.96 478.62 813.09 486.87 797.27 491.88C773.1 499.53 746.49 500 724.16 512.01C722.165 512.97 720.357 514.277 718.82 515.87C717.008 518.114 715.867 520.825 715.53 523.69C714.532 530.024 715.758 536.508 719 542.04C720.39 544.4 722.14 546.57 723.22 549.1C725.78 555.1 724.07 562.02 723.63 568.58C722.63 583.23 728.31 597.49 729.45 612.13C730.13 620.76 729.24 629.58 731.27 638C732.54 643.28 734.93 648.26 735.92 653.6C736.91 658.94 736.48 664.16 736.81 669.44C737.74 684.57 744.63 699.27 742.95 714.34L872.95 714.77C868.13 698 864.12 680.66 868.49 663.77C870.007 658.429 871.891 653.2 874.13 648.12C881.4 630.55 888.87 612.93 892.88 594.35C896.89 575.77 897.25 555.93 890.46 538.17C882.9 518.37 866.83 501.9 863.33 481C857.33 480.2 851.35 482.2 845.34 481.24Z" fill="#3F3D56"/>
<path d="M708.91 67.72C707.65 65.08 704.08 63.34 701.68 65.01C699.28 66.68 699.59 70.41 699 73.41C697.86 79.31 692 83.33 686 84.27C683.19 84.72 680.06 84.54 677.88 82.72C676.476 81.3752 675.443 79.6909 674.88 77.83C668.88 61.83 672.53 43.15 682.35 29.19C684.434 26.0618 687.018 23.2981 690 21.01C698.27 15.01 709.33 15.01 719.56 15.33C721.637 15.5552 723.739 15.3126 725.71 14.62C727.212 13.8293 728.588 12.8181 729.79 11.62C739.48 3.09996 752.87 -0.480042 765.79 0.0899576C778.71 0.659958 791.14 5.08996 802.62 10.98C808.11 13.79 813.49 16.98 817.79 21.42C828.12 32.05 830.64 47.8 832.67 62.48C834.85 78.32 837.02 94.6 833.35 110.17C831.27 118.99 827.35 127.61 827.81 136.66C819.504 139.032 811.062 140.899 802.53 142.25C798.53 142.88 793.91 143.25 790.98 140.42C789.741 139.092 788.836 137.487 788.34 135.74C785.17 126.37 786.23 115.67 781.44 107.01C779.437 103.479 776.575 100.511 773.119 98.3819C769.663 96.2526 765.725 95.0308 761.67 94.83C758.53 94.72 754.96 95.49 753.35 98.18C752.733 99.4994 752.257 100.88 751.93 102.3C749.71 108.99 740.62 112.3 734.63 108.57C731.63 106.69 729.58 103.57 726.87 101.23C723.43 98.28 719.02 96.76 715.16 94.38C702.3 86.41 713.89 78.17 708.91 67.72Z" fill="#3F3D56"/>
<path d="M608.62 408.41C603.15 410.16 598.17 413.33 592.85 415.56C583.48 419.47 573.18 420.38 563.35 422.88C553.906 425.413 544.803 429.08 536.24 433.8C535.61 434.14 533.63 435.8 532.05 436.94C532.05 436.43 532.05 435.94 532.05 435.4C532.271 432.13 533.638 429.043 535.91 426.68C538.25 424.25 541.38 422.77 544.46 421.39C560.413 414.27 576.999 408.662 594 404.64C596.71 404 599.58 403.4 602.25 404.21C603.1 406.82 605.86 407.74 608.62 408.41Z" fill="#3F3D56"/>
<path opacity="0.1" d="M466.85 664.86C477.61 676.86 487.26 689.96 499.78 700.08C485.33 680.89 464.6 668.08 445.86 653.61C442.06 650.67 434.46 646.5 432.16 642.25C428.53 635.59 436.55 640.32 439.88 642.13C450.28 647.78 459 656.12 466.85 664.86Z" fill="black"/>
<path opacity="0.1" d="M854 314.58C853.49 318.9 851.88 323 850.25 327.02C846.25 337.02 841.96 346.92 835.92 355.79C831.76 361.9 826.81 367.42 822.47 373.39C818.015 379.727 813.929 386.314 810.23 393.12C803.41 405.2 796.764 417.38 790.29 429.66C787.2 435.54 784.13 441.47 780.14 446.78C777.34 450.364 774.335 453.783 771.14 457.02C764.14 464.4 756.95 471.22 750.69 479.22C747.59 483.22 742.42 484.76 737.59 486.12C735.975 486.657 734.291 486.96 732.59 487.02C730.878 486.901 729.192 486.527 727.59 485.91C722.196 484.264 716.917 482.259 711.79 479.91C710.63 457.76 708 435.53 713.79 414.31C715.52 408.05 717.96 402.01 719.92 395.82C723.75 383.75 724.74 371.27 725.7 358.75C726.89 356.24 728.16 353.75 729.39 351.33C737.73 334.85 744.76 316.7 742.59 298.33C742.038 295.018 741.654 291.681 741.44 288.33C741.461 284.222 742.153 280.145 743.49 276.26C746.483 267.085 751.43 258.668 757.991 251.59C764.551 244.511 772.569 238.94 781.49 235.26C784.308 233.943 787.38 233.261 790.49 233.26C794.49 233.47 798.32 235.55 802.22 234.79C815.43 240.6 826.12 250.52 834.11 262.54C842.1 274.56 842.54 290.62 851.23 302.14C853.8 305.64 854.5 310.27 854 314.58Z" fill="black"/>
<path d="M564.86 260.31L564.44 259.4L548.1 266.94L545.37 268.2L542.65 269.45L565.69 319.4L568.41 318.14L571.14 316.88L587.48 309.34L587.06 308.44L570.72 315.98L570.3 315.07L586.64 307.53L586.22 306.62L569.88 314.16L569.46 313.25L585.8 305.71L585.39 304.8L569.04 312.34L568.62 311.44L584.97 303.9L584.55 302.99L568.2 310.53L567.78 309.62L584.13 302.08L583.71 301.17L567.37 308.71L566.95 307.8L583.29 300.26L582.87 299.36L566.53 306.9L566.11 305.99L582.45 298.45L582.03 297.54L565.69 305.08L565.27 304.17L581.62 296.63L581.2 295.72L564.85 303.26L564.43 302.36L580.78 294.81L580.36 293.91L564.01 301.45L563.6 300.54L579.94 293L579.52 292.09L563.18 299.63L562.76 298.72L579.1 291.18L578.68 290.27L562.34 297.81L561.92 296.91L578.26 289.37L577.85 288.46L561.5 296L561.08 295.09L577.43 287.55L577.01 286.64L560.66 294.18L560.25 293.27L576.59 285.74L576.17 284.83L559.83 292.37L559.41 291.46L575.75 283.92L575.33 283.01L558.99 290.55L558.57 289.64L574.91 282.1L574.5 281.19L558.15 288.74L557.73 287.83L574.08 280.29L573.66 279.38L557.31 286.92L556.89 286.01L573.24 278.47L572.82 277.56L556.48 285.1L556.06 284.19L572.4 276.65L571.98 275.75L555.64 283.29L555.22 282.38L571.56 274.84L571.14 273.93L554.8 281.47L554.38 280.56L570.73 273.02L570.31 272.12L553.96 279.65L553.54 278.75L569.89 271.21L569.47 270.3L553.12 277.84L552.71 276.93L569.05 269.39L568.63 268.48L552.29 276.02L551.87 275.11L568.21 267.57L567.79 266.67L551.45 274.21L551.03 273.3L567.37 265.76L566.96 264.85L550.61 272.39L550.19 271.48L566.54 263.94L566.12 263.03L549.77 270.57L549.35 269.67L565.7 262.13L565.28 261.22L548.93 268.76L548.52 267.85L564.86 260.31Z" fill="black"/>
<path opacity="0.1" d="M616.16 370.17C614.05 373.74 610.82 376.84 606.81 377.89C601.81 379.18 595.99 376.68 593.81 372C592.47 369.1 592.53 365.78 592.46 362.59C592.349 356.343 591.68 350.118 590.46 343.99C589.84 340.92 589.01 337.73 586.92 335.41C584.22 332.41 579.92 331.41 575.92 331.34C571.24 331.28 566.11 332.55 563.38 336.34C561.19 339.4 560.81 343.7 557.9 346.09C556.606 347.082 555.069 347.708 553.45 347.9C550.149 348.311 546.805 347.604 543.953 345.891C541.102 344.178 538.907 341.558 537.72 338.45C536.8 335.81 536.35 332.53 533.85 331.29C532.55 330.64 531 330.76 529.61 330.34C525.35 329.05 524.23 323.65 523.84 319.22C523.39 314.03 525.12 303.78 518.67 303.43C511.77 303.05 503.76 307.06 497.37 309.19C493.27 310.84 488.45 312.74 484.68 310.43C481.91 308.72 480.77 305.17 480.94 301.92C481.11 298.67 482.35 295.59 483.33 292.49C485.01 287.25 486.02 281.81 487.56 276.49C486.836 277.995 486.192 279.537 485.63 281.11C483.41 287.42 482.37 294.11 480.33 300.45C479.33 303.55 478.11 306.63 477.94 309.88C477.77 313.13 478.94 316.68 481.68 318.39C485.45 320.7 490.27 318.8 494.37 317.15C500.76 315.02 508.77 311.01 515.67 311.39C522.12 311.74 520.39 321.99 520.84 327.18C521.23 331.61 522.35 337.01 526.61 338.3C528 338.72 529.55 338.6 530.85 339.25C533.35 340.49 533.85 343.77 534.72 346.41C535.907 349.518 538.102 352.138 540.953 353.851C543.805 355.564 547.149 356.271 550.45 355.86C552.069 355.668 553.606 355.042 554.9 354.05C557.81 351.66 558.19 347.36 560.38 344.3C563.11 340.49 568.24 339.22 572.92 339.3C576.92 339.36 581.27 340.36 583.92 343.37C586.01 345.69 586.84 348.88 587.46 351.95C588.68 358.078 589.349 364.303 589.46 370.55C589.53 373.74 589.46 377.06 590.81 379.96C592.98 384.64 598.81 387.14 603.81 385.85C607.81 384.8 611.05 381.7 613.16 378.13C614.766 375.215 616.002 372.111 616.84 368.89C616.62 369.35 616.4 369.76 616.16 370.17Z" fill="black"/>
<path d="M667.6 363.53C659.6 355.85 652.37 347.35 645.19 338.87C638.31 330.76 631.41 322.61 625.87 313.54C622.44 307.93 619.38 301.81 614.11 297.88C610.11 294.88 605.22 293.48 600.8 291.19C597.62 289.54 594.69 287.45 591.55 285.74C584.701 282.038 576.992 280.219 569.21 280.47C565.98 280.58 562.31 281.33 560.65 284.11C560.08 285.06 559.81 286.17 559.23 287.11C557.44 290.11 553.13 290.96 551.66 294.11C549.18 299.41 556.66 304.28 557.13 310.11C557.35 313.03 555.74 315.75 555.27 318.64C554.47 323.64 557.06 328.41 559.56 332.77C564.91 342.11 571.42 352.34 581.93 354.69C585.65 355.52 589.58 355.25 593.21 356.43C596.136 357.539 598.843 359.153 601.21 361.2C611.084 368.983 619.787 378.147 627.05 388.41C630.43 393.18 633.49 398.16 636.9 402.9C647.753 417.917 661.995 430.162 678.47 438.64L690.74 399.64C692.63 393.64 694.12 385.41 688.74 380.73C682 374.66 674.23 369.87 667.6 363.53Z" fill="#FBBEBE"/>
<path d="M801.17 229.83C797.27 230.58 793.4 228.51 789.44 228.3C786.33 228.299 783.257 228.982 780.44 230.3C771.52 233.982 763.503 239.555 756.943 246.633C750.383 253.71 745.435 262.126 742.44 271.3C741.116 275.201 740.433 279.291 740.42 283.41C740.48 286.76 741.18 290.06 741.57 293.41C743.74 311.75 736.71 329.91 728.38 346.41C723.77 355.52 718.57 365.13 719.66 375.28C719.8 376.64 720.02 378.17 719.19 379.28C718.19 380.6 716.03 380.67 715.1 382.06C714.17 383.45 715.02 385.55 714.28 387.12C713.28 389.34 710.02 389.07 707.69 388.28C701.303 386.119 695.387 382.759 690.26 378.38C681.95 383.23 673.06 389.01 670.33 398.23C669.689 400.582 669.244 402.984 669 405.41L664.71 441.21C664.14 445.95 663.86 451.51 667.44 454.67C673.61 460.13 684.6 453.06 691.2 458C692.89 459.26 693.99 461.14 695.2 462.85C702.41 472.74 714.82 477.09 726.46 480.85C728.064 481.459 729.749 481.829 731.46 481.95C733.162 481.902 734.848 481.599 736.46 481.05C741.3 479.69 746.46 478.11 749.56 474.16C755.83 466.16 763.02 459.34 770.02 451.96C773.21 448.718 776.214 445.299 779.02 441.72C783.02 436.4 786.08 430.47 789.17 424.59C795.63 412.31 802.27 400.13 809.09 388.05C812.827 381.272 816.95 374.714 821.44 368.41C825.79 362.41 830.73 356.91 834.89 350.81C840.89 341.93 845.2 331.99 849.22 322.04C850.85 318.04 852.46 313.91 852.98 309.6C853.5 305.29 852.8 300.66 850.18 297.19C841.49 285.66 841.06 269.61 833.07 257.59C825.08 245.57 814.39 235.63 801.17 229.83Z" fill="#F3A712"/>
<path d="M565.13 264.41C564.897 264.558 564.699 264.756 564.55 264.99C564.401 265.223 564.306 265.486 564.27 265.76C564.27 266.26 564.68 266.65 564.9 267.1C565.51 268.38 564.53 269.86 563.41 270.74C562.29 271.62 560.93 272.3 560.32 273.59C560.226 273.761 560.184 273.956 560.2 274.15C560.268 274.414 560.423 274.646 560.64 274.81C561.298 275.567 562.153 276.128 563.11 276.43C564.64 276.75 566.11 275.74 567.41 274.91C568.82 274.018 570.322 273.281 571.89 272.71C572.375 272.567 572.832 272.34 573.24 272.04C573.74 271.542 574.048 270.883 574.11 270.18C574.45 267.67 573.11 265.26 571.58 263.18C569.74 260.73 566.7 263.06 565.13 264.41Z" fill="#3F3D56"/>
<path d="M411.71 560.762L307.909 507.781C307.151 507.395 306.224 507.695 305.837 508.453L279.383 560.282C278.996 561.039 279.297 561.967 280.055 562.354L383.856 615.334C384.613 615.721 385.541 615.42 385.927 614.663L412.381 562.833C412.768 562.076 412.467 561.148 411.71 560.762Z" fill="#3F3D56"/>
<path d="M402.153 562.094L312.603 516.387L289.882 560.904L379.431 606.611L402.153 562.094Z" fill="#E8E8F0"/>
<path d="M299.272 537.656C299.546 537.12 299.11 536.349 298.298 535.935C297.486 535.521 296.607 535.619 296.333 536.156C296.059 536.692 296.495 537.462 297.307 537.877C298.119 538.291 298.999 538.192 299.272 537.656Z" fill="#E6E8EC"/>
<path d="M397.201 587.769C397.65 586.888 396.93 585.621 395.592 584.938C394.254 584.255 392.805 584.415 392.355 585.296C391.906 586.176 392.626 587.444 393.964 588.127C395.302 588.81 396.751 588.649 397.201 587.769Z" fill="#E6E8EC"/>
<g opacity="0.1">
<path d="M833.33 103.13C831.25 111.95 827.33 120.57 827.79 129.62C819.484 131.992 811.042 133.859 802.51 135.21C798.51 135.84 793.89 136.21 790.96 133.38C789.721 132.052 788.816 130.447 788.32 128.7C785.15 119.33 786.21 108.63 781.42 99.9698C779.417 96.4389 776.555 93.471 773.099 91.3418C769.642 89.2125 765.704 87.9907 761.65 87.7898C758.51 87.6798 754.94 88.4498 753.33 91.1398C752.713 92.4593 752.237 93.8403 751.91 95.2598C749.69 101.95 740.6 105.26 734.61 101.53C731.61 99.6498 729.56 96.5298 726.85 94.1898C723.41 91.2398 719 89.7198 715.14 87.3398C711.66 85.1998 709.99 83.0398 709.28 80.8098C708.4 85.6198 708.15 90.0398 715.14 94.3398C719 96.7198 723.41 98.2398 726.85 101.19C729.56 103.51 731.57 106.65 734.61 108.53C740.61 112.24 749.69 108.95 751.91 102.26C752.237 100.84 752.713 99.4593 753.33 98.1398C754.94 95.4498 758.51 94.6798 761.65 94.7898C765.704 94.9907 769.642 96.2125 773.099 98.3418C776.555 100.471 779.417 103.439 781.42 106.97C786.21 115.63 785.15 126.33 788.32 135.7C788.823 137.462 789.742 139.077 791 140.41C793.93 143.21 798.56 142.87 802.55 142.24C811.082 140.889 819.524 139.022 827.83 136.65C827.34 127.6 831.29 118.98 833.37 110.16C834.972 102.942 835.614 95.5453 835.28 88.1598C835.121 93.2016 834.468 98.2155 833.33 103.13V103.13Z" fill="black"/>
<path d="M709.88 70.5199C710.612 67.2308 710.261 63.7934 708.88 60.7199C707.62 58.0799 704.05 56.3399 701.65 58.0099C699.25 59.6799 699.59 63.4099 699 66.4099C697.86 72.3099 692 76.3299 686 77.2699C683.19 77.7199 680.06 77.5399 677.88 75.7199C676.476 74.3751 675.443 72.6908 674.88 70.8299C673.344 66.6708 672.411 62.3133 672.11 57.8899C671.602 64.658 672.547 71.4564 674.88 77.8299C675.443 79.6908 676.476 81.3751 677.88 82.7199C680.06 84.5399 683.19 84.7199 686 84.2699C691.93 83.3299 697.82 79.2699 699 73.4099C699.57 70.4099 699.18 66.7799 701.66 65.0599C704.14 63.3399 707.66 65.1299 708.89 67.7699C709.318 68.6481 709.65 69.5701 709.88 70.5199Z" fill="black"/>
</g>
</g>
<defs>
<clipPath id="clip0_618_606">
<rect width="1144" height="714.9" fill="white"/>
</clipPath>
</defs>
</svg>
